<svg width="149" height="82" viewBox="0 0 149 82" fill="none" xmlns="http://www.w3.org/2000/svg">
<path d="M4.63745 3.26505C3.64522 2.26426 2.81234 1.16541 2.13867 0H30.6558L27.2647 3.36216C20.9895 9.58367 10.859 9.54019 4.63745 3.26505Z" fill="#01AEA9"/>
<path d="M121.735 3.36216L118.343 0H146.861C146.187 1.16541 145.354 2.26426 144.362 3.26505C138.14 9.54019 128.01 9.58367 121.735 3.36216Z" fill="#01AEA9"/>
<path d="M63.235 4.63784C69.4721 -1.54595 79.528 -1.54595 85.765 4.63784L144.265 62.6378C149.539 67.8671 150.411 75.858 146.861 82H118.344L74.5 38.5309L30.6562 82H2.13906C-1.4113 75.858 -0.53941 67.8671 4.73495 62.6378L63.235 4.63784Z" fill="#01AEA9"/>
</svg>
