<svg width="20" height="16" viewBox="0 0 20 16" fill="none" xmlns="http://www.w3.org/2000/svg">
<path d="M5.3794 0.0205083C5.3148 0.00706273 5.24789 0 5.17936 0C4.89579 0 4.64013 0.120898 4.45995 0.314542L0.289391 4.53557C-0.0964637 4.92609 -0.0964637 5.55926 0.289391 5.94978C0.675246 6.34031 1.30084 6.34031 1.68669 5.94978L4.19131 3.41485V8C4.19131 9.58225 4.65489 11.129 5.52343 12.4446C6.39197 13.7602 7.62646 14.7855 9.07079 15.391C10.5151 15.9965 12.1044 16.155 13.6377 15.8463C15.171 15.5376 16.5794 14.7757 17.6849 13.6569C18.7903 12.538 19.5431 11.1126 19.8481 9.56072C20.1531 8.00887 19.9966 6.40034 19.3983 4.93853C18.8001 3.47672 17.7869 2.22729 16.4871 1.34824C15.8266 0.901571 15.1071 0.560718 14.354 0.333481C13.8311 0.175685 13.2808 0.476818 13.1249 1.00608C12.969 1.53534 13.2665 2.09231 13.7894 2.25011C14.3543 2.42054 14.8938 2.67618 15.3892 3.01118C16.3641 3.67047 17.124 4.60754 17.5726 5.7039C18.0213 6.80025 18.1387 8.00665 17.91 9.17054C17.6813 10.3344 17.1166 11.4035 16.2876 12.2426C15.4585 13.0818 14.4022 13.6532 13.2522 13.8847C12.1022 14.1162 10.9103 13.9974 9.82701 13.5433C8.74376 13.0891 7.81789 12.3201 7.16649 11.3334C6.51508 10.3467 6.1674 9.18669 6.1674 8V3.41364L8.67321 5.94978C9.05907 6.34031 9.68466 6.34031 10.0705 5.94978C10.4564 5.55926 10.4564 4.92609 10.0705 4.53557L5.8786 0.292928C5.73668 0.149291 5.56233 0.0584841 5.3794 0.0205083Z" fill="#01AEA9"/>
</svg>
